<svg width="14" height="12" viewBox="0 0 14 12" fill="none" xmlns="http://www.w3.org/2000/svg">
<path d="M9.26533 3.52266L12.758 4.01953C13.0473 4.05938 13.2903 4.25625 13.3827 4.52578C13.4751 4.79766 13.3997 5.09297 13.1907 5.29453L10.658 7.68984L11.256 11.1258C11.3046 11.407 11.1855 11.693 10.9424 11.8594C10.7018 12.0258 10.3834 12.0469 10.1233 11.9133L7.00248 10.3078L3.88408 11.9133C3.62158 12.0469 3.30318 12.0258 3.06255 11.8594C2.82193 11.693 2.7004 11.407 2.75144 11.1258L3.34936 7.68984L0.816233 5.29453C0.606962 5.09297 0.532587 4.79766 0.624462 4.52578C0.716094 4.25625 0.95842 4.05938 1.24984 4.01953L4.73964 3.52266L6.30491 0.421173C6.43373 0.162985 6.70596 -0.000915527 7.00248 -0.000915527C7.30144 -0.000915527 7.57366 0.162985 7.70248 0.421173L9.26533 3.52266Z" fill="black"/>
</svg>
